<?xml version="1.0" encoding="UTF-8" ?>
<svg xmlns="http://www.w3.org/2000/svg" version="1.1" >
<path d="M 9.96000003814697 13.0968008041382 C 11.4133319854736 13.0968017578125 12.519998550415 13.6901350021362 13.2799997329712 14.8768005371094 L 14.6799993515015 13.3368005752563 C 14.8399991989136 13.1768016815186 14.939998626709 13.0968017578125 14.9799995422363 13.0968008041382 C 15.1266651153564 13.0968017578125 15.1999988555908 13.1634683609009 15.1999998092651 13.2968006134033 L 13.9399995803833 18.396800994873 C 13.8733329772949 18.6368007659912 13.8066663742065 18.7634677886963 13.7399997711182 18.7768001556396 L 13.7199993133545 18.7968006134033 L 13.5799999237061 18.7968006134033 C 13.3799991607666 18.7968006134033 13.2799987792969 18.7301330566406 13.2799997329712 18.5968017578125 L 13.3400001525879 17.6168003082275 L 13.3400001525879 17.5768013000488 C 13.3399991989136 15.9234676361084 12.8199996948242 14.78346824646 11.7799997329712 14.1568002700806 L 11.7599992752075 14.1368007659912 C 11.2933320999146 13.85680103302 10.7466659545898 13.7168006896973 10.1199998855591 13.7168006896973 C 8.69333267211914 13.7168006896973 7.33999967575073 14.2568016052246 6.05999994277954 15.3368005752563 C 5.69999980926514 15.6301345825195 5.3866662979126 15.9501342773438 5.11999988555908 16.2968006134033 C 3.83999967575073 17.8701343536377 3.08666634559631 19.803466796875 2.85999989509583 22.0967998504639 C 2.83333325386047 22.3768005371094 2.8199999332428 22.6168003082275 2.8199999332428 22.8167991638184 C 2.8199999332428 24.6434669494629 3.51333332061768 25.896800994873 4.90000009536743 26.5767993927002 C 5.48666667938232 26.8701343536377 6.13333320617676 27.0167999267578 6.83999967575073 27.0167999267578 C 7.97333335876465 27.0167999267578 8.91333293914795 26.7301330566406 9.65999984741211 26.1567993164063 C 10.1933326721191 25.756799697876 10.5399990081787 25.2368011474609 10.6999998092651 24.5967998504639 C 10.9799995422363 23.5568008422852 11.1199998855591 22.9501342773438 11.1199998855591 22.7768001556396 C 11.1199998855591 22.6034660339355 11.0199995040894 22.4901351928711 10.8199996948242 22.4368000030518 C 10.7533321380615 22.4234676361084 10.6466655731201 22.4101333618164 10.5 22.396800994873 C 10.1933326721191 22.3701343536377 9.83999919891357 22.3568000793457 9.4399995803833 22.3568000793457 C 9.07999992370605 22.3568000793457 8.8866662979126 22.316801071167 8.85999965667725 22.2368011474609 C 8.84666633605957 22.2234668731689 8.84000015258789 22.1901340484619 8.84000015258789 22.1368007659912 C 8.84000015258789 21.8701324462891 8.97999954223633 21.7368011474609 9.26000022888184 21.7368011474609 L 12.039999961853 21.7968006134033 L 12.0599994659424 21.7968006134033 L 14.1399993896484 21.7368011474609 L 14.1599998474121 21.7368011474609 C 14.3333330154419 21.7368011474609 14.4200000762939 21.8101348876953 14.4200000762939 21.9568004608154 C 14.4200000762939 22.2234668731689 14.3133325576782 22.3568000793457 14.0999994277954 22.3568000793457 C 13.486665725708 22.3701343536377 13.1199989318848 22.4368019104004 13 22.5568008422852 C 12.9200000762939 22.6501350402832 12.8266658782959 22.9034671783447 12.7199993133545 23.316801071167 C 12.7199983596802 23.2901344299316 12.6533317565918 23.5501346588135 12.5199995040894 24.0967998504639 C 12.4933319091797 24.1901340484619 12.4733324050903 24.270133972168 12.460000038147 24.336799621582 L 12.0799999237061 25.8768005371094 C 11.8933334350586 26.6501331329346 11.7799997329712 27.0568008422852 11.7399997711182 27.0967998504639 C 11.7399997711182 27.1501331329346 11.6933326721191 27.1767997741699 11.5999994277954 27.1767997741699 C 11.453332901001 27.1767997741699 11.2266664505005 26.9234676361084 10.9200000762939 26.4167995452881 C 10.8266658782959 26.2434673309326 10.7533321380615 26.0834674835205 10.6999998092651 25.9368000030518 C 10.2466659545898 26.4434661865234 9.73333263397217 26.8234672546387 9.15999984741211 27.0767993927002 L 8.96000003814697 27.1567993164063 C 8.18666648864746 27.4768009185791 7.35333251953125 27.6368007659912 6.46000003814697 27.6368007659912 C 4.65999984741211 27.6368007659912 3.246666431427 27.0101337432861 2.22000002861023 25.756799697876 C 1.40666663646698 24.770133972168 1 23.5701332092285 0.99999988079071 22.1567993164063 C 1 20.1701354980469 1.72666656970978 18.3101348876953 3.17999982833862 16.5768013000488 C 4.52666616439819 14.9634675979614 6.11999988555908 13.896800994873 7.96000003814697 13.3768005371094 C 8.63999938964844 13.1901350021362 9.30666637420654 13.0968017578125 9.96000003814697 13.0968008041382 Z " fill = "black" />
<path d="M 17.9789810180664 24.0088005065918 C 18.4736480712891 24.0088005065918 18.8189811706543 24.2187995910645 19.0149803161621 24.6387996673584 C 19.0896472930908 24.7974662780762 19.1269798278809 24.9701347351074 19.1269798278809 25.1567993164063 C 19.1269798278809 25.3528003692627 19.0709800720215 25.5861339569092 18.9589805603027 25.8568000793457 C 18.4549808502197 27.2007999420166 18.1843147277832 28.129467010498 18.1469802856445 28.6427993774414 L 18.1469802856445 28.824800491333 C 18.1469802856445 29.5714664459229 18.4456481933594 29.977466583252 19.0429801940918 30.0428009033203 L 19.1829795837402 30.0428009033203 C 19.9389801025391 30.0428009033203 20.5923137664795 29.4081344604492 21.1429805755615 28.1387996673584 C 21.4696464538574 27.3921337127686 21.6469802856445 26.762134552002 21.6749801635742 26.24880027771 C 21.6749801635742 25.782133102417 21.5163135528564 25.3994674682617 21.1989803314209 25.1007995605469 C 21.0496463775635 24.9514656066895 20.9749794006348 24.811466217041 20.9749794006348 24.6807994842529 C 20.9749794006348 24.4474678039551 21.0963134765625 24.2561340332031 21.338981628418 24.1068000793457 C 21.4416465759277 24.0414657592773 21.5489807128906 24.0088005065918 21.6609802246094 24.0088005065918 C 21.9316463470459 24.0088005065918 22.1183128356934 24.1814670562744 22.2209815979004 24.5268001556396 C 22.2583122253418 24.6574668884277 22.2769794464111 24.811466217041 22.2769813537598 24.9888000488281 C 22.2769794464111 25.5021324157715 22.1369800567627 26.2208003997803 21.8569793701172 27.1448001861572 C 21.3156471252441 28.9554672241211 20.5643138885498 30.0008010864258 19.6029796600342 30.2807998657227 C 19.4536476135254 30.3274669647217 19.2949810028076 30.3507995605469 19.1269798278809 30.3507995605469 C 18.2776470184326 30.3507995605469 17.7129802703857 30.0568008422852 17.4329795837402 29.4687995910645 C 17.3116474151611 29.2261333465576 17.2509803771973 28.9414672851563 17.2509803771973 28.6147994995117 C 17.2509803771973 28.129467010498 17.4656467437744 27.3081340789795 17.8949813842773 26.1508007049561 L 18.0489807128906 25.744800567627 C 18.2076473236084 25.3341331481934 18.286979675293 25.0074672698975 18.286979675293 24.7648010253906 C 18.286979675293 24.4661331176758 18.1703147888184 24.3167991638184 17.9369812011719 24.3167991638184 C 17.4329795837402 24.3167991638184 17.0176467895508 24.7321338653564 16.6909809112549 25.5627994537354 C 16.6256465911865 25.7121334075928 16.5696468353271 25.875467300415 16.5229797363281 26.0527992248535 C 16.4203128814697 26.2114677429199 16.3456478118896 26.295467376709 16.2989807128906 26.3048000335693 C 16.1869812011719 26.3048000335693 16.1309795379639 26.2581329345703 16.1309795379639 26.1648006439209 C 16.1309795379639 25.9967994689941 16.2336463928223 25.7028007507324 16.4389801025391 25.2828006744385 C 16.8403129577637 24.4334678649902 17.3536472320557 24.0088005065918 17.9789810180664 24.0088005065918 Z " fill = "black" />
<path d="M 30.3666877746582 23.7368011474609 L 42.3066864013672 23.7368011474609 C 42.7333526611328 23.7368011474609 42.9600219726563 23.8701343536377 42.986686706543 24.1368007659912 C 42.986686706543 24.4034671783447 42.7666854858398 24.5368003845215 42.3266868591309 24.5368003845215 L 30.3466892242432 24.5368003845215 C 29.9200210571289 24.5368003845215 29.7000217437744 24.4034671783447 29.6866893768311 24.1368007659912 C 29.6866874694824 23.8701343536377 29.9133548736572 23.7368011474609 30.3666877746582 23.7368011474609 Z M 30.3466892242432 19.8568000793457 L 42.3266868591309 19.8568000793457 C 42.7533569335938 19.8568000793457 42.9733543395996 19.9901332855225 42.986686706543 20.256799697876 C 42.986686706543 20.5234680175781 42.7600212097168 20.6567993164063 42.3066864013672 20.6567993164063 L 30.3666877746582 20.6567993164063 C 29.9400215148926 20.6567993164063 29.7133560180664 20.5234680175781 29.6866893768311 20.256799697876 C 29.6866874694824 19.9901332855225 29.9066886901855 19.8568000793457 30.3466892242432 19.8568000793457 Z " fill = "black" />
<path d="M 62.0777587890625 4.82664012908936 C 62.784423828125 4.82664012908936 63.2777557373047 5.12664031982422 63.5577583312988 5.72664022445679 C 63.6644248962402 5.95330715179443 63.7177581787109 6.19997406005859 63.7177581787109 6.46664047241211 C 63.7177581787109 6.74664068222046 63.6377563476563 7.07997417449951 63.4777565002441 7.46664047241211 C 62.7577590942383 9.38664054870605 62.3710899353027 10.7133073806763 62.317756652832 11.4466400146484 L 62.317756652832 11.7066402435303 C 62.317756652832 12.7733068466187 62.7444229125977 13.3533067703247 63.5977554321289 13.4466400146484 L 63.7977561950684 13.4466400146484 C 64.8777542114258 13.4466400146484 65.8110885620117 12.5399732589722 66.5977554321289 10.7266407012939 C 67.0644226074219 9.65997409820557 67.317756652832 8.75997352600098 67.3577575683594 8.02663993835449 C 67.3577575683594 7.3599739074707 67.1310882568359 6.81330728530884 66.6777572631836 6.38664054870605 C 66.4644241333008 6.17330741882324 66.3577575683594 5.97330760955811 66.3577575683594 5.78664064407349 C 66.3577575683594 5.45330715179443 66.5310897827148 5.17997360229492 66.8777542114258 4.96664047241211 C 67.0244216918945 4.87330722808838 67.1777572631836 4.82664012908936 67.3377532958984 4.82664012908936 C 67.7244262695313 4.82664012908936 67.9910888671875 5.07330799102783 68.1377563476563 5.56664085388184 C 68.1910858154297 5.75330781936646 68.2177581787109 5.97330760955811 68.2177581787109 6.22664022445679 C 68.2177581787109 6.95997428894043 68.0177612304688 7.98664093017578 67.6177597045898 9.306640625 C 66.8444213867188 11.8933067321777 65.7710876464844 13.3866405487061 64.3977584838867 13.7866401672363 C 64.1844253540039 13.8533067703247 63.9577560424805 13.8866405487061 63.7177581787109 13.8866405487061 C 62.5044250488281 13.8866405487061 61.6977577209473 13.4666404724121 61.2977561950684 12.6266403198242 C 61.1244239807129 12.2799739837646 61.0377578735352 11.8733072280884 61.0377578735352 11.4066400527954 C 61.0377578735352 10.7133073806763 61.344425201416 9.53997421264648 61.9577560424805 7.88664054870605 L 62.1777572631836 7.306640625 C 62.4044227600098 6.71997404098511 62.5177574157715 6.2533073425293 62.5177574157715 5.90664052963257 C 62.5177574157715 5.47997379302979 62.3510894775391 5.26664066314697 62.0177574157715 5.26664066314697 C 61.2977561950684 5.26664066314697 60.7044258117676 5.8599739074707 60.2377586364746 7.04664039611816 C 60.1444244384766 7.25997447967529 60.0644226074219 7.49330759048462 59.9977569580078 7.7466402053833 C 59.8510894775391 7.97330713272095 59.7444229125977 8.09330749511719 59.6777572631836 8.10663986206055 C 59.5177574157715 8.10663986206055 59.4377593994141 8.03997421264648 59.4377593994141 7.90664052963257 C 59.4377593994141 7.6666407585144 59.5844230651855 7.24664068222046 59.877758026123 6.64664030075073 C 60.4510917663574 5.43330669403076 61.1844253540039 4.82664012908936 62.0777587890625 4.82664012908936 Z " fill = "black" />
<path d="M 72.8642425537109 10.786639213562 C 72.2949066162109 10.786639213562 71.7582397460938 11.0853061676025 71.2542419433594 11.6826391220093 C 71.1889038085938 11.7666397094727 71.1282348632813 11.8506393432617 71.0722351074219 11.9346389770508 C 71.0349044799805 11.9813060760498 71.0022354125977 12.0279731750488 70.974235534668 12.0746393203735 C 70.6382369995117 12.6159725189209 70.3909072875977 13.3719730377197 70.2322387695313 14.3426389694214 C 70.1855697631836 14.6039724349976 70.162239074707 14.818639755249 70.162239074707 14.9866390228271 C 70.162239074707 15.761305809021 70.4329071044922 16.246639251709 70.974235534668 16.4426383972168 C 71.1049041748047 16.4893054962158 71.2402420043945 16.5126399993896 71.380241394043 16.5126399993896 C 71.930908203125 16.5126399993896 72.4489059448242 16.2419719696045 72.9342346191406 15.7006397247314 C 73.0649032592773 15.551305770874 73.1815719604492 15.3926391601563 73.2842407226563 15.2246389389038 C 73.6762390136719 14.5526390075684 73.9375686645508 13.717306137085 74.0682373046875 12.7186393737793 C 74.0775756835938 12.6439723968506 74.0822372436523 12.5693063735962 74.0822372436523 12.4946393966675 L 74.0822372436523 12.4806385040283 L 74.0962371826172 12.4666385650635 L 74.0962371826172 12.2986392974854 C 74.0962371826172 11.6079730987549 73.8675689697266 11.1459732055664 73.4102401733398 10.9126396179199 C 73.2515716552734 10.8286399841309 73.0695724487305 10.786639213562 72.8642425537109 10.786639213562 Z M 72.8782348632813 10.4786396026611 C 73.680908203125 10.4786396026611 74.292236328125 10.7913055419922 74.7122421264648 11.4166393280029 C 74.9829025268555 11.8179721832275 75.1182403564453 12.2939720153809 75.1182403564453 12.8446388244629 C 75.1182403564453 13.8339729309082 74.740234375 14.7346391677856 73.9842376708984 15.5466394424438 C 73.2655715942383 16.330638885498 72.4582366943359 16.750638961792 71.5622406005859 16.8066387176514 C 71.4969024658203 16.8159732818604 71.4315719604492 16.8206386566162 71.3662414550781 16.8206386566162 C 70.5542373657227 16.8206386566162 69.9382400512695 16.4986400604248 69.5182418823242 15.8546390533447 C 69.2569046020508 15.4533061981201 69.1262359619141 14.9866390228271 69.1262359619141 14.4546394348145 C 69.1262359619141 13.4933061599731 69.4995727539063 12.6019725799561 70.2462387084961 11.7806396484375 C 70.9555740356445 10.996639251709 71.7582397460938 10.5673065185547 72.6542358398438 10.492639541626 C 72.7289047241211 10.4833059310913 72.8035736083984 10.4786396026611 72.8782348632813 10.4786396026611 Z " fill = "black" />
<rect x="49.6778804444444" y="21.79681" width="35.34036" height="0.79998" />
<path d="M 55.3178787231445 32.5158233642578 C 54.6245460510254 32.5158233642578 53.9645462036133 32.9691543579102 53.3378791809082 33.8758201599121 C 53.2178802490234 34.0491561889648 53.1045455932617 34.2358207702637 52.9978790283203 34.4358215332031 C 52.611213684082 35.209156036377 52.2845458984375 36.309154510498 52.017879486084 37.7358207702637 C 51.9378776550293 38.1891555786133 51.8978805541992 38.5491561889648 51.8978805541992 38.8158226013184 C 51.8978805541992 39.7224884033203 52.1512145996094 40.309154510498 52.6578788757324 40.5758209228516 C 52.8045463562012 40.6558227539063 52.9778785705566 40.6958198547363 53.1778793334961 40.6958198547363 C 53.9245452880859 40.6958198547363 54.6778793334961 40.2224884033203 55.4378776550293 39.275821685791 C 55.6245460510254 39.0624885559082 55.7512130737305 38.8424873352051 55.8178787231445 38.6158218383789 L 55.8178787231445 38.5958213806152 C 55.8312110900879 38.5691528320313 55.8378791809082 38.5491561889648 55.8378791809082 38.5358200073242 L 56.8378791809082 34.6158218383789 C 56.8778800964355 34.4158210754395 56.8978805541992 34.302490234375 56.8978805541992 34.275821685791 C 56.8978805541992 33.9958190917969 56.7778778076172 33.6558227539063 56.5378799438477 33.2558212280273 C 56.2445449829102 32.7624893188477 55.8378791809082 32.5158233642578 55.3178787231445 32.5158233642578 Z M 59.7378768920898 27.0358200073242 C 59.9112129211426 27.0358200073242 59.9978790283203 27.1091537475586 59.9978790283203 27.2558212280273 L 57.1178779602051 38.8158226013184 C 57.0378799438477 39.1491546630859 56.9978790283203 39.4691543579102 56.9978790283203 39.775821685791 C 56.9978790283203 40.3891525268555 57.1978797912598 40.6958198547363 57.5978775024414 40.6958198547363 C 58.1045455932617 40.6958198547363 58.5312118530273 40.1624870300293 58.8778800964355 39.0958213806152 C 58.9445457458496 38.8691558837891 59.024543762207 38.5758209228516 59.1178779602051 38.2158203125 C 59.2245445251465 37.9891548156738 59.3178787231445 37.8691558837891 59.3978805541992 37.8558197021484 C 59.5578765869141 37.8558197021484 59.6378784179688 37.9224891662598 59.6378784179688 38.0558204650879 C 59.6378784179688 38.2558212280273 59.517879486084 38.7224884033203 59.2778778076172 39.4558219909668 C 59.1978759765625 39.682487487793 59.1178779602051 39.8758201599121 59.0378799438477 40.0358200073242 C 58.6645431518555 40.7691535949707 58.1712112426758 41.1358222961426 57.5578804016113 41.1358222961426 C 56.8112106323242 41.1358222961426 56.2712135314941 40.8158226013184 55.9378776550293 40.1758193969727 C 55.8445434570313 40.0158195495605 55.7778778076172 39.835823059082 55.7378807067871 39.6358222961426 C 54.8978805541992 40.6358222961426 54.0312118530273 41.1358222961426 53.1378784179688 41.1358222961426 C 52.1378784179688 41.1358222961426 51.3978805541992 40.682487487793 50.9178810119629 39.775821685791 C 50.6245460510254 39.242488861084 50.4778785705566 38.6291542053223 50.4778785705566 37.9358215332031 C 50.4778785705566 36.4958229064941 50.9778785705566 35.1624870300293 51.9778785705566 33.9358215332031 C 52.9112129211426 32.8158187866211 53.9245452880859 32.2024879455566 55.017879486084 32.0958213806152 C 55.111213684082 32.0824890136719 55.2045440673828 32.0758209228516 55.2978782653809 32.0758209228516 C 56.111213684082 32.0758209228516 56.7245445251465 32.5024871826172 57.1378784179688 33.3558197021484 L 58.3378791809082 28.6158218383789 L 58.3978805541992 28.2158203125 C 58.3978805541992 28.0691547393799 58.3045463562012 27.9758224487305 58.1178779602051 27.9358215332031 C 57.957878112793 27.8958206176758 57.7178802490234 27.8758220672607 57.3978805541992 27.8758201599121 C 57.1045455932617 27.8758220672607 56.9445457458496 27.7958221435547 56.9178771972656 27.6358222961426 C 56.9178771972656 27.4091548919678 57.0112113952637 27.2824897766113 57.1978797912598 27.2558212280273 C 58.4512100219727 27.1091537475586 59.2978782653809 27.0358200073242 59.7378768920898 27.0358200073242 Z " fill = "black" />
<path d="M 66.5076370239258 25.9158210754395 C 66.6409759521484 25.9158210754395 66.7076416015625 25.9824886322021 66.7076416015625 26.1158218383789 C 66.7076416015625 26.182487487793 66.6209716796875 26.2958221435547 66.447639465332 26.4558219909668 C 64.3009719848633 28.6424884796143 63.2276382446289 31.7958221435547 63.2276382446289 35.9158210754395 C 63.2276382446289 40.0224876403809 64.2743072509766 43.1424865722656 66.3676376342773 45.275821685791 C 66.5943069458008 45.5024871826172 66.7076416015625 45.6491546630859 66.7076416015625 45.7158203125 C 66.7076416015625 45.8491554260254 66.6409759521484 45.9158210754395 66.5076370239258 45.9158210754395 C 66.3476409912109 45.9158210754395 65.9943084716797 45.6424865722656 65.447639465332 45.0958213806152 C 64.6209716796875 44.2691535949707 63.9343032836914 43.2891540527344 63.387638092041 42.1558227539063 C 62.5076370239258 40.3424873352051 62.0676383972168 38.2624893188477 62.0676383972168 35.9158210754395 C 62.0676383972168 33.6624870300293 62.4876403808594 31.6291542053223 63.3276405334473 29.8158226013184 C 64.0209732055664 28.335823059082 64.9009704589844 27.1491546630859 65.9676361083984 26.2558212280273 C 66.2476348876953 26.0291557312012 66.4276351928711 25.9158210754395 66.5076370239258 25.9158210754395 Z " fill = "black" />
<path d="M 73.8854370117188 32.0758209228516 C 74.9387741088867 32.0758209228516 75.6654357910156 32.4024887084961 76.0654373168945 33.0558204650879 C 76.1987762451172 33.2824897766113 76.2654418945313 33.5291557312012 76.2654418945313 33.7958221435547 C 76.2654418945313 34.3958206176758 76.0387725830078 34.7558212280273 75.5854415893555 34.8758201599121 C 75.5054397583008 34.9024887084961 75.4254379272461 34.9158210754395 75.3454437255859 34.9158210754395 C 74.9721069335938 34.8624877929688 74.7654418945313 34.6691551208496 74.7254409790039 34.335823059082 C 74.7254409790039 33.9758224487305 74.9054412841797 33.709156036377 75.2654418945313 33.5358200073242 C 75.3987731933594 33.4691543579102 75.5387725830078 33.4358215332031 75.6854400634766 33.4358215332031 C 75.4054412841797 32.8491554260254 74.8054428100586 32.5424880981445 73.8854370117188 32.5158233642578 C 72.8054428100586 32.5158233642578 72.0987701416016 32.9224891662598 71.7654418945313 33.7358207702637 C 71.6854400634766 33.9358215332031 71.6454391479492 34.1291542053223 71.6454391479492 34.3158226013184 C 71.6454391479492 34.835823059082 71.9654388427734 35.1891555786133 72.6054382324219 35.3758201599121 L 72.6254425048828 35.3958206176758 C 72.7187728881836 35.4224891662598 72.8987731933594 35.4624862670898 73.1654434204102 35.5158195495605 C 73.9921035766602 35.6891555786133 74.5454406738281 35.8758201599121 74.825439453125 36.0758209228516 C 74.945442199707 36.1558227539063 75.0587768554688 36.249153137207 75.1654434204102 36.3558197021484 C 75.5787734985352 36.7691535949707 75.7854385375977 37.2558212280273 75.7854385375977 37.8158226013184 C 75.7854385375977 38.5091552734375 75.5254364013672 39.1691551208496 75.0054397583008 39.7958221435547 C 74.2587738037109 40.6891555786133 73.1787719726563 41.1358222961426 71.7654418945313 41.1358222961426 C 70.5254364013672 41.1358222961426 69.6654434204102 40.7891540527344 69.1854400634766 40.0958213806152 C 68.9987716674805 39.8291549682617 68.9054412841797 39.5291557312012 68.9054412841797 39.1958198547363 C 68.9054412841797 38.5424880981445 69.1587753295898 38.122486114502 69.6654434204102 37.9358215332031 C 69.7854385375977 37.8958206176758 69.9054412841797 37.8758201599121 70.0254364013672 37.8758201599121 C 70.4654388427734 37.9424896240234 70.7121047973633 38.1758193969727 70.7654418945313 38.5758209228516 C 70.7654418945313 38.9891548156738 70.5854415893555 39.2958221435547 70.2254409790039 39.4958229064941 C 70.0121078491211 39.6291542053223 69.7721099853516 39.6758193969727 69.5054397583008 39.6358222961426 C 69.8121032714844 40.3424873352051 70.5721054077148 40.6958198547363 71.7854385375977 40.6958198547363 C 73.1587753295898 40.6958198547363 74.0587768554688 40.1958198547363 74.4854431152344 39.1958198547363 C 74.5921096801758 38.9424896240234 74.6454391479492 38.709156036377 74.6454391479492 38.4958229064941 C 74.6454391479492 37.8558197021484 74.2521057128906 37.4158210754395 73.4654388427734 37.1758193969727 L 73.445442199707 37.1758193969727 C 73.2454376220703 37.1224899291992 72.9521026611328 37.0558204650879 72.5654373168945 36.9758224487305 C 71.3654403686523 36.7224884033203 70.6921081542969 36.1891555786133 70.5454406738281 35.3758201599121 C 70.5187759399414 35.2558212280273 70.5054397583008 35.1291542053223 70.5054397583008 34.9958190917969 C 70.5054397583008 34.3291549682617 70.7587738037109 33.709156036377 71.2654418945313 33.1358222961426 C 71.8921051025391 32.4291534423828 72.7654418945313 32.0758209228516 73.8854370117188 32.0758209228516 Z " fill = "black" />
<path d="M 78.580436706543 25.9158210754395 C 78.7404403686523 25.9158210754395 79.0937728881836 26.1891555786133 79.6404418945313 26.7358207702637 C 80.4671096801758 27.5624885559082 81.1537704467773 28.5424880981445 81.700439453125 29.6758213043213 C 82.580436706543 31.4891548156738 83.0204391479492 33.5691528320313 83.0204391479492 35.9158210754395 C 83.0204391479492 38.1691551208496 82.6004409790039 40.2024879455566 81.7604370117188 42.0158195495605 C 81.0671081542969 43.4958190917969 80.1871032714844 44.682487487793 79.1204376220703 45.5758209228516 C 78.8404388427734 45.8024864196777 78.6604385375977 45.9158210754395 78.580436706543 45.9158210754395 C 78.4471054077148 45.9158210754395 78.3804397583008 45.8491554260254 78.3804397583008 45.7158203125 C 78.3804397583008 45.6491546630859 78.4671096801758 45.5358200073242 78.6404418945313 45.3758201599121 C 80.787109375 43.1891555786133 81.8604431152344 40.0358200073242 81.8604431152344 35.9158210754395 C 81.8604431152344 31.8491554260254 80.8604431152344 28.7691555023193 78.8604431152344 26.6758213043213 L 78.7604370117188 26.5758209228516 C 78.5071105957031 26.3358211517334 78.3804397583008 26.182487487793 78.3804397583008 26.1158218383789 C 78.3804397583008 25.9824886322021 78.4471054077148 25.9158210754395 78.580436706543 25.9158210754395 Z " fill = "black" />
<path d="M 92.3738174438477 23.7368011474609 L 104.313812255859 23.7368011474609 C 104.740478515625 23.7368011474609 104.967147827148 23.8701343536377 104.993812561035 24.1368007659912 C 104.993812561035 24.4034671783447 104.773811340332 24.5368003845215 104.33381652832 24.5368003845215 L 92.3538131713867 24.5368003845215 C 91.9271469116211 24.5368003845215 91.707145690918 24.4034671783447 91.6938171386719 24.1368007659912 C 91.6938171386719 23.8701343536377 91.9204788208008 23.7368011474609 92.3738174438477 23.7368011474609 Z M 92.3538131713867 19.8568000793457 L 104.33381652832 19.8568000793457 C 104.760482788086 19.8568000793457 104.980484008789 19.9901332855225 104.993812561035 20.256799697876 C 104.993812561035 20.5234680175781 104.767150878906 20.6567993164063 104.313812255859 20.6567993164063 L 92.3738174438477 20.6567993164063 C 91.947151184082 20.6567993164063 91.7204818725586 20.5234680175781 91.6938171386719 20.256799697876 C 91.6938171386719 19.9901332855225 91.9138107299805 19.8568000793457 92.3538131713867 19.8568000793457 Z " fill = "black" />
<path d="M 166.409240722656 0.00664035277441144 L 167.46923828125 0.0466404519975185 L 167.489242553711 0.0466404519975185 L 168.549240112305 0.0666409283876419 L 168.589233398438 0.0666409283876419 L 171.049240112305 0.00664035277441144 L 171.069244384766 0.00664035277441144 C 171.255905151367 0.00664138793945313 171.349243164063 0.0799741744995117 171.349243164063 0.226640686392784 C 171.242568969727 0.479973793029785 171.075912475586 0.613306999206543 170.849243164063 0.626640439033508 C 169.995910644531 0.626641273498535 169.535903930664 0.826641082763672 169.46923828125 1.22664070129395 L 170.829238891602 11.806640625 L 176.96923828125 2.04664039611816 L 177.229248046875 1.48664081096649 C 177.255905151367 1.40664005279541 177.269241333008 1.33997344970703 177.269241333008 1.28664016723633 C 177.269241333008 0.886640548706055 176.96257019043 0.666640281677246 176.349243164063 0.626640439033508 C 176.13591003418 0.626641273498535 176.029235839844 0.54664134979248 176.029235839844 0.386640459299088 C 176.029235839844 0.133307456970215 176.155914306641 0.00664138793945313 176.409240722656 0.00664035277441144 L 178.369247436523 0.0666409283876419 L 178.389236450195 0.0666409283876419 L 179.989242553711 0.00664035277441144 L 180.029235839844 0.00664035277441144 C 180.202575683594 0.00664138793945313 180.289245605469 0.0866413116455078 180.289245605469 0.246640101075172 C 180.289245605469 0.486640930175781 180.202575683594 0.613306999206543 180.029235839844 0.626640439033508 C 179.335906982422 0.666640281677246 178.789245605469 0.853307723999023 178.389236450195 1.18664073944092 C 178.242568969727 1.306640625 178.095901489258 1.45330715179443 177.949234008789 1.62664031982422 C 177.789245605469 1.813307762146 177.629241943359 2.03330707550049 177.46923828125 2.28664016723633 L 170.269241333008 13.7466402053833 C 170.055908203125 13.9733066558838 169.869247436523 14.0933065414429 169.709243774414 14.1066398620605 C 169.522567749023 14.1066398620605 169.402572631836 14.0266399383545 169.349243164063 13.8666400909424 C 169.335906982422 13.8133068084717 169.322570800781 13.7399740219116 169.309234619141 13.6466398239136 L 167.729248046875 1.306640625 C 167.689239501953 0.999974250793457 167.595901489258 0.813307762145996 167.449234008789 0.746640264987946 C 167.30256652832 0.666640281677246 166.995910644531 0.626641273498535 166.529235839844 0.626640439033508 C 166.222579956055 0.626641273498535 166.055908203125 0.54664134979248 166.029235839844 0.386640459299088 C 166.029235839844 0.133307456970215 166.155914306641 0.00664138793945313 166.409240722656 0.00664035277441144 Z " fill = "black" />
<path d="M 178.82991027832 10.4786396026611 C 179.324584960938 10.4786396026611 179.669906616211 10.6886386871338 179.865905761719 11.1086387634277 C 179.940582275391 11.2673053741455 179.977905273438 11.4399728775024 179.977905273438 11.6266393661499 C 179.977905273438 11.8133058547974 179.917251586914 12.0606393814087 179.795913696289 12.3686389923096 C 179.637252807617 12.7979726791382 179.534576416016 13.068639755249 179.487915039063 13.1806392669678 L 178.941909790039 14.6506395339966 C 178.680572509766 15.4066390991211 178.54524230957 15.8733062744141 178.535919189453 16.0506401062012 C 178.535919189453 16.3586387634277 178.647918701172 16.5126399993896 178.871917724609 16.5126399993896 C 179.459915161133 16.5126399993896 179.917251586914 15.9899730682373 180.243911743164 14.9446392059326 L 180.299911499023 14.7766389846802 C 180.346572875977 14.6273059844971 180.393249511719 14.5479726791382 180.439910888672 14.5386390686035 L 180.439910888672 14.5246391296387 L 180.509918212891 14.5246391296387 C 180.621917724609 14.5246391296387 180.677917480469 14.5713062286377 180.677917480469 14.6646394729614 C 180.677917480469 14.8326396942139 180.575241088867 15.1313056945801 180.369918823242 15.5606393814087 C 179.96858215332 16.4006385803223 179.459915161133 16.8206386566162 178.84391784668 16.8206386566162 C 178.349243164063 16.8206386566162 178.00390625 16.615306854248 177.807907104492 16.2046394348145 C 177.733245849609 16.0366401672363 177.695907592773 15.8593063354492 177.695907592773 15.6726388931274 C 177.695907592773 15.48597240448 177.803253173828 15.1126394271851 178.017913818359 14.5526390075684 C 178.671249389648 12.7979726791382 178.993240356445 11.9346389770508 178.983917236328 11.9626388549805 C 179.086578369141 11.7013063430786 179.137908935547 11.4586391448975 179.137908935547 11.2346391677856 C 179.137908935547 10.9359722137451 179.021240234375 10.786639213562 178.78791809082 10.786639213562 C 178.27458190918 10.786639213562 177.854583740234 11.2113056182861 177.527908325195 12.0606393814087 L 177.527908325195 12.0746393203735 C 177.471908569336 12.2146396636963 177.42057800293 12.3639726638794 177.373916625977 12.5226392745972 C 177.271240234375 12.6813058853149 177.196578979492 12.7653064727783 177.149917602539 12.7746391296387 C 177.03791809082 12.7746391296387 176.981918334961 12.7279720306396 176.981918334961 12.6346397399902 C 176.981918334961 12.4666395187378 177.084579467773 12.1726398468018 177.289916992188 11.7526397705078 C 177.69123840332 10.9033060073853 178.204574584961 10.4786396026611 178.82991027832 10.4786396026611 Z M 180.033905029297 7.41263866424561 C 180.313919067383 7.41263866424561 180.481918334961 7.53863906860352 180.53791809082 7.79063892364502 L 180.53791809082 7.80463886260986 C 180.547241210938 7.84197235107422 180.551910400391 7.87930583953857 180.551910400391 7.91663932800293 C 180.551910400391 8.20597267150879 180.407241821289 8.42530632019043 180.117919921875 8.57463932037354 C 180.015243530273 8.63064002990723 179.912582397461 8.65863990783691 179.809906005859 8.6586389541626 C 179.529907226563 8.65863990783691 179.357238769531 8.532639503479 179.291915893555 8.28063869476318 C 179.282577514648 8.23397254943848 179.277908325195 8.19197273254395 179.277908325195 8.15463924407959 C 179.277908325195 7.89330577850342 179.408584594727 7.68330574035645 179.669906616211 7.52463912963867 C 179.791244506836 7.44997215270996 179.912582397461 7.41263866424561 180.033905029297 7.41263866424561 Z " fill = "black" />
<path d="M 183.275100708008 10.4786396026611 C 183.797760009766 10.4786396026611 184.175765991211 10.6979722976685 184.409088134766 11.1366386413574 C 184.493087768555 11.3046388626099 184.54443359375 11.4913063049316 184.563095092773 11.6966390609741 C 185.160430908203 10.8846397399902 185.888427734375 10.4786396026611 186.747100830078 10.4786396026611 C 187.549758911133 10.4786396026611 188.05842590332 10.786639213562 188.273086547852 11.4026393890381 C 188.3291015625 11.5706396102905 188.357086181641 11.7619724273682 188.357086181641 11.9766387939453 C 188.357086181641 12.4526395797729 188.07243347168 13.4793062210083 187.50309753418 15.0566396713257 C 187.335098266602 15.467306137085 187.251098632813 15.7986392974854 187.251098632813 16.0506401062012 C 187.251098632813 16.3586387634277 187.363098144531 16.5126399993896 187.587097167969 16.5126399993896 C 188.203094482422 16.5126399993896 188.679092407227 15.9339723587036 189.015090942383 14.7766389846802 C 189.061767578125 14.6273059844971 189.108428955078 14.5479726791382 189.155090332031 14.5386390686035 L 189.155090332031 14.5246391296387 L 189.22509765625 14.5246391296387 C 189.337097167969 14.5246391296387 189.393096923828 14.5713062286377 189.393096923828 14.6646394729614 C 189.393096923828 14.8233060836792 189.29508972168 15.1173057556152 189.099090576172 15.5466394424438 C 188.69775390625 16.3959732055664 188.184432983398 16.8206386566162 187.559097290039 16.8206386566162 C 187.083099365234 16.8206386566162 186.742431640625 16.6199722290039 186.537094116211 16.2186393737793 C 186.453094482422 16.0506401062012 186.411087036133 15.8686389923096 186.411087036133 15.6726388931274 C 186.411087036133 15.48597240448 186.457763671875 15.2713060379028 186.551086425781 15.0286388397217 C 187.157760620117 13.3953056335449 187.461090087891 12.3079719543457 187.461090087891 11.7666397094727 C 187.461090087891 11.1133060455322 187.209091186523 10.786639213562 186.705093383789 10.786639213562 C 185.865097045898 10.786639213562 185.160430908203 11.253306388855 184.591094970703 12.1866397857666 C 184.525756835938 12.2893056869507 184.469757080078 12.3919725418091 184.423095703125 12.4946393966675 L 184.241088867188 13.1946392059326 C 184.194427490234 13.4093055725098 184.115097045898 13.7219724655151 184.00309753418 14.1326389312744 L 183.695098876953 15.3926391601563 C 183.536422729492 16.0366401672363 183.44775390625 16.3819732666016 183.429092407227 16.428638458252 C 183.345092773438 16.6713066101074 183.172424316406 16.8019733428955 182.911087036133 16.8206386566162 C 182.677764892578 16.7739734649658 182.542419433594 16.6479721069336 182.505096435547 16.4426383972168 C 182.505096435547 16.4613056182861 182.547088623047 16.2606391906738 182.631088256836 15.8406391143799 L 183.443099975586 12.6066398620605 C 183.592422485352 12.0093059539795 183.667098999023 11.6173057556152 183.667098999023 11.4306392669678 C 183.667098999023 11.0013065338135 183.522430419922 10.786639213562 183.233093261719 10.786639213562 C 182.850433349609 10.786639213562 182.53776550293 11.2299728393555 182.29508972168 12.1166391372681 C 182.26708984375 12.2193059921265 182.23908996582 12.3313064575195 182.211090087891 12.4526386260986 C 182.108428955078 12.6579723358154 182.029098510742 12.7653064727783 181.973098754883 12.7746391296387 C 181.861099243164 12.7746391296387 181.805099487305 12.7279720306396 181.805099487305 12.6346397399902 C 181.805099487305 12.4853057861328 181.898422241211 12.1493062973022 182.085098266602 11.6266393661499 L 182.085098266602 11.6126384735107 C 182.085098266602 11.6033058166504 182.089767456055 11.5986394882202 182.099090576172 11.5986385345459 L 182.099090576172 11.5846385955811 L 182.099090576172 11.5706386566162 L 182.22509765625 11.2766389846802 C 182.430419921875 10.9033060073853 182.640426635742 10.6699724197388 182.855087280273 10.576639175415 C 182.985763549805 10.511305809021 183.125762939453 10.4786396026611 183.275100708008 10.4786396026611 Z " fill = "black" />
<rect x="111.685004888889" y="21.79681" width="131.841619111111" height="0.79998" />
<path d="M 116.105003356934 27.2558212280273 L 118.745002746582 27.3158226013184 L 118.765007019043 27.3158226013184 L 121.705001831055 27.2558212280273 L 121.725006103516 27.2558212280273 C 121.938339233398 27.2558212280273 122.04500579834 27.335823059082 122.04500579834 27.4958209991455 C 122.04500579834 27.709156036377 121.958335876465 27.8291549682617 121.785003662109 27.8558216094971 C 121.705001831055 27.8691558837891 121.53833770752 27.8758220672607 121.285003662109 27.8758201599121 C 120.231674194336 27.8758220672607 119.605003356934 27.9891548156738 119.405006408691 28.2158203125 C 119.325004577637 28.309154510498 119.245002746582 28.5091552734375 119.165008544922 28.8158226013184 L 116.465003967285 39.6158218383789 C 116.398338317871 39.8558197021484 116.365005493164 40.0091552734375 116.365005493164 40.0758209228516 C 116.365005493164 40.182487487793 116.425003051758 40.249153137207 116.54500579834 40.275821685791 L 116.625007629395 40.275821685791 C 116.705001831055 40.2891540527344 116.851669311523 40.2958221435547 117.065002441406 40.2958221435547 L 118.945007324219 40.2958221435547 C 120.891670227051 40.2958221435547 122.30500793457 39.5224876403809 123.185005187988 37.9758224487305 C 123.411674499512 37.5758209228516 123.671669006348 36.9758224487305 123.965003967285 36.1758193969727 C 124.071670532227 35.9224891662598 124.158340454102 35.7891540527344 124.225006103516 35.775821685791 L 124.245002746582 35.7558212280273 L 124.30500793457 35.7558212280273 C 124.451675415039 35.7558212280273 124.531669616699 35.8291549682617 124.54500579834 35.9758224487305 C 124.54500579834 36.0158195495605 124.518341064453 36.1091537475586 124.465003967285 36.2558212280273 L 122.88500213623 40.5758209228516 C 122.818336486816 40.775821685791 122.731674194336 40.8824882507324 122.625007629395 40.8958206176758 L 122.605003356934 40.8958206176758 C 122.55167388916 40.9091529846191 122.438339233398 40.9158210754395 122.265007019043 40.9158210754395 L 113.005004882813 40.9158210754395 C 112.671669006348 40.9158210754395 112.491668701172 40.8424873352051 112.465003967285 40.6958198547363 C 112.465003967285 40.4558219909668 112.565002441406 40.3224868774414 112.765007019043 40.2958221435547 L 113.005004882813 40.2958221435547 C 113.871673583984 40.2958221435547 114.391670227051 40.2024879455566 114.565002441406 40.0158195495605 C 114.645004272461 39.9224891662598 114.725006103516 39.7358207702637 114.80500793457 39.4558219909668 C 114.80500793457 39.4424896240234 114.811668395996 39.4091529846191 114.825004577637 39.3558197021484 L 117.505004882813 28.6158218383789 C 117.558334350586 28.4024887084961 117.585006713867 28.275821685791 117.585006713867 28.2358207702637 C 117.585006713867 28.0758209228516 117.478340148926 27.9758224487305 117.265007019043 27.9358215332031 L 117.245002746582 27.9358215332031 L 117.225006103516 27.9358215332031 C 117.185005187988 27.9358215332031 117.125007629395 27.9291553497314 117.04500579834 27.9158210754395 C 116.818336486816 27.8891544342041 116.565002441406 27.8758220672607 116.285003662109 27.8758201599121 C 115.938339233398 27.8758220672607 115.751670837402 27.8024883270264 115.725006103516 27.6558227539063 C 115.725006103516 27.3891563415527 115.851669311523 27.2558212280273 116.105003356934 27.2558212280273 Z " fill = "black" />
<path d="M 135.256149291992 26.8158226013184 C 136.70947265625 26.8158226013184 137.816146850586 27.4091567993164 138.576141357422 28.5958213806152 L 139.976135253906 27.0558204650879 C 140.136138916016 26.8958225250244 140.236145019531 26.8158226013184 140.276138305664 26.8158226013184 C 140.422805786133 26.8158226013184 140.496139526367 26.8824882507324 140.496139526367 27.0158214569092 L 139.236145019531 32.1158218383789 C 139.169479370117 32.3558197021484 139.102813720703 32.4824905395508 139.036148071289 32.4958190917969 L 139.016143798828 32.5158233642578 L 138.87614440918 32.5158233642578 C 138.676147460938 32.5158233642578 138.576141357422 32.4491539001465 138.576141357422 32.3158226013184 L 138.636138916016 31.3358211517334 L 138.636138916016 31.2958221435547 C 138.636138916016 29.6424884796143 138.116149902344 28.5024890899658 137.076141357422 27.8758201599121 L 137.056137084961 27.8558216094971 C 136.589477539063 27.5758209228516 136.042816162109 27.4358215332031 135.416137695313 27.4358215332031 C 134.002807617188 27.4358215332031 132.662811279297 27.9624881744385 131.396148681641 29.0158214569092 C 131.076141357422 29.2691555023193 130.789474487305 29.5491561889648 130.536148071289 29.8558216094971 C 129.269470214844 31.3358211517334 128.489471435547 33.2158203125 128.196136474609 35.4958190917969 C 128.142807006836 35.9091567993164 128.116149902344 36.2691535949707 128.116149902344 36.5758209228516 C 128.116149902344 38.4424896240234 128.822814941406 39.7024879455566 130.236145019531 40.3558197021484 C 130.782806396484 40.6091537475586 131.3828125 40.7358207702637 132.036148071289 40.7358207702637 C 133.289474487305 40.7358207702637 134.516143798828 40.249153137207 135.71614074707 39.275821685791 C 136.649475097656 38.4891548156738 137.322814941406 37.4358215332031 137.736145019531 36.1158218383789 C 137.762802124023 35.9824867248535 137.849472045898 35.9158210754395 137.996139526367 35.9158210754395 C 138.156143188477 35.9158210754395 138.236145019531 35.9824867248535 138.236145019531 36.1158218383789 C 138.236145019531 36.3558197021484 138.082809448242 36.7824859619141 137.776138305664 37.3958206176758 C 137.362808227539 38.2358207702637 136.782806396484 38.9824867248535 136.036148071289 39.6358222961426 C 134.71614074707 40.7824859619141 133.276138305664 41.3558197021484 131.71614074707 41.3558197021484 C 130.009475708008 41.3558197021484 128.642807006836 40.7691535949707 127.616142272949 39.5958213806152 C 126.736145019531 38.5958213806152 126.296142578125 37.3558197021484 126.296142578125 35.8758201599121 C 126.296142578125 33.8891563415527 127.022811889648 32.0291557312012 128.476135253906 30.2958221435547 C 129.822814941406 28.682487487793 131.416137695313 27.6158218383789 133.256149291992 27.0958213806152 C 133.936141967773 26.9091567993164 134.602813720703 26.8158226013184 135.256149291992 26.8158226013184 Z " fill = "black" />
<path d="M 145.610595703125 32.0758209228516 C 146.663925170898 32.0758209228516 147.390594482422 32.4024887084961 147.790588378906 33.0558204650879 C 147.923919677734 33.2824897766113 147.990585327148 33.5291557312012 147.990585327148 33.7958221435547 C 147.990585327148 34.3958206176758 147.763916015625 34.7558212280273 147.310592651367 34.8758201599121 C 147.230590820313 34.9024887084961 147.150588989258 34.9158210754395 147.070587158203 34.9158210754395 C 146.697265625 34.8624877929688 146.490585327148 34.6691551208496 146.450592041016 34.335823059082 C 146.450592041016 33.9758224487305 146.630584716797 33.709156036377 146.990585327148 33.5358200073242 C 147.123931884766 33.4691543579102 147.263931274414 33.4358215332031 147.410583496094 33.4358215332031 C 147.130584716797 32.8491554260254 146.53059387207 32.5424880981445 145.610595703125 32.5158233642578 C 144.53059387207 32.5158233642578 143.823928833008 32.9224891662598 143.490585327148 33.7358207702637 C 143.410583496094 33.9358215332031 143.370590209961 34.1291542053223 143.370590209961 34.3158226013184 C 143.370590209961 34.835823059082 143.69059753418 35.1891555786133 144.330596923828 35.3758201599121 L 144.3505859375 35.3958206176758 C 144.443923950195 35.4224891662598 144.623931884766 35.4624862670898 144.890594482422 35.5158195495605 C 145.717254638672 35.6891555786133 146.270584106445 35.8758201599121 146.550598144531 36.0758209228516 C 146.670593261719 36.1558227539063 146.783920288086 36.249153137207 146.890594482422 36.3558197021484 C 147.303924560547 36.7691535949707 147.510589599609 37.2558212280273 147.510589599609 37.8158226013184 C 147.510589599609 38.5091552734375 147.250595092773 39.1691551208496 146.730590820313 39.7958221435547 C 145.983917236328 40.6891555786133 144.903930664063 41.1358222961426 143.490585327148 41.1358222961426 C 142.250595092773 41.1358222961426 141.390594482422 40.7891540527344 140.910598754883 40.0958213806152 C 140.723922729492 39.8291549682617 140.630584716797 39.5291557312012 140.630584716797 39.1958198547363 C 140.630584716797 38.5424880981445 140.883926391602 38.122486114502 141.390594482422 37.9358215332031 C 141.510589599609 37.8958206176758 141.630584716797 37.8758201599121 141.750595092773 37.8758201599121 C 142.19059753418 37.9424896240234 142.437255859375 38.1758193969727 142.490585327148 38.5758209228516 C 142.490585327148 38.9891548156738 142.310592651367 39.2958221435547 141.950592041016 39.4958229064941 C 141.737258911133 39.6291542053223 141.497253417969 39.6758193969727 141.230590820313 39.6358222961426 C 141.537261962891 40.3424873352051 142.297256469727 40.6958198547363 143.510589599609 40.6958198547363 C 144.883926391602 40.6958198547363 145.783920288086 40.1958198547363 146.210586547852 39.1958198547363 C 146.317260742188 38.9424896240234 146.370590209961 38.709156036377 146.370590209961 38.4958229064941 C 146.370590209961 37.8558197021484 145.977264404297 37.4158210754395 145.19059753418 37.1758193969727 L 145.170593261719 37.1758193969727 C 144.970596313477 37.1224899291992 144.677261352539 37.0558204650879 144.290588378906 36.9758224487305 C 143.090591430664 36.7224884033203 142.417251586914 36.1891555786133 142.270584106445 35.3758201599121 C 142.243927001953 35.2558212280273 142.230590820313 35.1291542053223 142.230590820313 34.9958190917969 C 142.230590820313 34.3291549682617 142.483917236328 33.709156036377 142.990585327148 33.1358222961426 C 143.617263793945 32.4291534423828 144.490585327148 32.0758209228516 145.610595703125 32.0758209228516 Z " fill = "black" />
<path d="M 152.283584594727 25.814037322998 C 153.310256958008 25.814037322998 154.108261108398 26.1593723297119 154.677597045898 26.8500385284424 C 155.004257202148 27.251371383667 155.19091796875 27.7273712158203 155.237594604492 28.2780380249023 C 155.246917724609 28.3620376586914 155.251586914063 28.4460391998291 155.251586914063 28.5300388336182 C 155.251586914063 29.2113723754883 154.994918823242 29.8600387573242 154.481597900391 30.476037979126 C 154.210922241211 30.7933712005615 153.790924072266 31.2133712768555 153.221588134766 31.7360382080078 L 152.367584228516 32.4920387268066 L 152.227584838867 32.6180381774902 L 150.743591308594 34.0600395202637 L 153.263595581055 34.0600395202637 C 154.084930419922 34.0600395202637 154.528259277344 34.022705078125 154.593597412109 33.9480400085449 C 154.686920166016 33.8173713684082 154.789596557617 33.4020385742188 154.901596069336 32.7020378112793 L 155.251586914063 32.7020378112793 L 154.859588623047 35.1380386352539 L 149.665588378906 35.1380386352539 C 149.665588378906 34.9047050476074 149.693588256836 34.75537109375 149.749588012695 34.6900367736816 L 149.819595336914 34.6200370788574 L 152.507598876953 31.6240386962891 C 153.487594604492 30.522705078125 153.977584838867 29.4913711547852 153.977584838867 28.5300388336182 C 153.977584838867 27.6993713378906 153.7255859375 27.069372177124 153.221588134766 26.6400375366211 L 153.207595825195 26.6260375976563 L 153.193588256836 26.6260375976563 C 152.894927978516 26.3740386962891 152.53092956543 26.2480392456055 152.101593017578 26.2480392456055 C 151.429595947266 26.2480392456055 150.892929077148 26.5373725891113 150.491592407227 27.116039276123 C 150.379592895508 27.2840385437012 150.286254882813 27.4707050323486 150.21159362793 27.6760387420654 C 150.239593505859 27.6667060852051 150.300262451172 27.6620388031006 150.393585205078 27.6620388031006 C 150.76692199707 27.6620388031006 151.004928588867 27.8300399780273 151.10758972168 28.1660385131836 L 151.10758972168 28.1800384521484 C 151.126251220703 28.2453727722168 151.135589599609 28.315372467041 151.135589599609 28.3900375366211 C 151.135589599609 28.7633724212646 150.958251953125 29.001371383667 150.603591918945 29.1040382385254 C 150.528930664063 29.1227054595947 150.463592529297 29.1320381164551 150.407592773438 29.1320381164551 C 150.062255859375 29.1320381164551 149.833587646484 28.9873733520508 149.721588134766 28.6980381011963 C 149.684265136719 28.5953712463379 149.665588378906 28.4787063598633 149.665588378906 28.3480377197266 C 149.665588378906 27.6293716430664 149.94091796875 27.0133724212646 150.491592407227 26.5000381469727 C 150.986251831055 26.0427055358887 151.583587646484 25.814037322998 152.283584594727 25.814037322998 Z " fill = "black" />
<path d="M 168.690063476563 29.2558212280273 C 168.956726074219 29.2558212280273 169.090057373047 29.4758224487305 169.090057373047 29.9158210754395 L 169.090057373047 35.5158195495605 L 174.670059204102 35.5158195495605 C 175.096725463867 35.5158195495605 175.31672668457 35.6491546630859 175.330062866211 35.9158210754395 C 175.330062866211 36.182487487793 175.110061645508 36.3158226013184 174.670059204102 36.3158226013184 L 169.090057373047 36.3158226013184 L 169.090057373047 41.9158210754395 C 169.090057373047 42.3424873352051 168.956726074219 42.5624885559082 168.690063476563 42.5758209228516 C 168.423400878906 42.5758209228516 168.290069580078 42.3558197021484 168.290069580078 41.9158210754395 L 168.290069580078 36.3158226013184 L 162.690063476563 36.3158226013184 C 162.263397216797 36.3158226013184 162.043395996094 36.182487487793 162.030059814453 35.9158210754395 C 162.030059814453 35.6491546630859 162.250061035156 35.5158195495605 162.690063476563 35.5158195495605 L 168.290069580078 35.5158195495605 L 168.290069580078 29.9158210754395 C 168.290069580078 29.4891548156738 168.423400878906 29.2691555023193 168.690063476563 29.2558212280273 Z " fill = "black" />
<path d="M 185.330139160156 27.2558212280273 L 187.970138549805 27.3158226013184 L 187.990142822266 27.3158226013184 L 190.930145263672 27.2558212280273 L 190.950134277344 27.2558212280273 C 191.163467407227 27.2558212280273 191.270141601563 27.335823059082 191.270141601563 27.4958209991455 C 191.270141601563 27.709156036377 191.183471679688 27.8291549682617 191.010147094727 27.8558216094971 C 190.930145263672 27.8691558837891 190.763473510742 27.8758220672607 190.510147094727 27.8758201599121 C 189.456802368164 27.8758220672607 188.830139160156 27.9891548156738 188.630142211914 28.2158203125 C 188.550140380859 28.309154510498 188.470138549805 28.5091552734375 188.39013671875 28.8158226013184 L 185.690139770508 39.6158218383789 C 185.623474121094 39.8558197021484 185.590133666992 40.0091552734375 185.590133666992 40.0758209228516 C 185.590133666992 40.182487487793 185.650146484375 40.249153137207 185.770141601563 40.275821685791 L 185.850143432617 40.275821685791 C 185.930145263672 40.2891540527344 186.076812744141 40.2958221435547 186.290145874023 40.2958221435547 L 188.170135498047 40.2958221435547 C 190.116806030273 40.2958221435547 191.530136108398 39.5224876403809 192.410140991211 37.9758224487305 C 192.636810302734 37.5758209228516 192.89680480957 36.9758224487305 193.190139770508 36.1758193969727 C 193.296813964844 35.9224891662598 193.38346862793 35.7891540527344 193.450134277344 35.775821685791 L 193.470138549805 35.7558212280273 L 193.530136108398 35.7558212280273 C 193.676803588867 35.7558212280273 193.756805419922 35.8291549682617 193.770141601563 35.9758224487305 C 193.770141601563 36.0158195495605 193.743469238281 36.1091537475586 193.690139770508 36.2558212280273 L 192.110137939453 40.5758209228516 C 192.043472290039 40.775821685791 191.956802368164 40.8824882507324 191.850143432617 40.8958206176758 L 191.830139160156 40.8958206176758 C 191.776809692383 40.9091529846191 191.663467407227 40.9158210754395 191.490142822266 40.9158210754395 L 182.23014831543 40.9158210754395 C 181.89680480957 40.9158210754395 181.716812133789 40.8424873352051 181.690139770508 40.6958198547363 C 181.690139770508 40.4558219909668 181.790145874023 40.3224868774414 181.990142822266 40.2958221435547 L 182.23014831543 40.2958221435547 C 183.096801757813 40.2958221435547 183.616806030273 40.2024879455566 183.790145874023 40.0158195495605 C 183.870147705078 39.9224891662598 183.950134277344 39.7358207702637 184.030136108398 39.4558219909668 C 184.030136108398 39.4424896240234 184.036804199219 39.4091529846191 184.050140380859 39.3558197021484 L 186.730133056641 28.6158218383789 C 186.783477783203 28.4024887084961 186.810134887695 28.275821685791 186.810134887695 28.2358207702637 C 186.810134887695 28.0758209228516 186.703475952148 27.9758224487305 186.490142822266 27.9358215332031 L 186.470138549805 27.9358215332031 L 186.450134277344 27.9358215332031 C 186.410140991211 27.9358215332031 186.350143432617 27.9291553497314 186.270141601563 27.9158210754395 C 186.043472290039 27.8891544342041 185.790145874023 27.8758220672607 185.510147094727 27.8758201599121 C 185.163467407227 27.8758220672607 184.976806640625 27.8024883270264 184.950134277344 27.6558227539063 C 184.950134277344 27.3891563415527 185.076812744141 27.2558212280273 185.330139160156 27.2558212280273 Z " fill = "black" />
<path d="M 200.541290283203 32.0758209228516 C 201.594619750977 32.0758209228516 202.3212890625 32.4024887084961 202.721282958984 33.0558204650879 C 202.854614257813 33.2824897766113 202.921279907227 33.5291557312012 202.921279907227 33.7958221435547 C 202.921279907227 34.3958206176758 202.694610595703 34.7558212280273 202.241287231445 34.8758201599121 C 202.161285400391 34.9024887084961 202.081283569336 34.9158210754395 202.001281738281 34.9158210754395 C 201.627960205078 34.8624877929688 201.421279907227 34.6691551208496 201.381286621094 34.335823059082 C 201.381286621094 33.9758224487305 201.561279296875 33.709156036377 201.921279907227 33.5358200073242 C 202.054626464844 33.4691543579102 202.194625854492 33.4358215332031 202.341278076172 33.4358215332031 C 202.061279296875 32.8491554260254 201.461288452148 32.5424880981445 200.541290283203 32.5158233642578 C 199.461288452148 32.5158233642578 198.754623413086 32.9224891662598 198.421279907227 33.7358207702637 C 198.341278076172 33.9358215332031 198.301284790039 34.1291542053223 198.301284790039 34.3158226013184 C 198.301284790039 34.835823059082 198.621292114258 35.1891555786133 199.261291503906 35.3758201599121 L 199.281280517578 35.3958206176758 C 199.374618530273 35.4224891662598 199.554626464844 35.4624862670898 199.8212890625 35.5158195495605 C 200.64794921875 35.6891555786133 201.201278686523 35.8758201599121 201.481292724609 36.0758209228516 C 201.601287841797 36.1558227539063 201.714614868164 36.249153137207 201.8212890625 36.3558197021484 C 202.234619140625 36.7691535949707 202.441284179688 37.2558212280273 202.441284179688 37.8158226013184 C 202.441284179688 38.5091552734375 202.181289672852 39.1691551208496 201.661285400391 39.7958221435547 C 200.914611816406 40.6891555786133 199.834625244141 41.1358222961426 198.421279907227 41.1358222961426 C 197.181289672852 41.1358222961426 196.3212890625 40.7891540527344 195.841293334961 40.0958213806152 C 195.65461730957 39.8291549682617 195.561279296875 39.5291557312012 195.561279296875 39.1958198547363 C 195.561279296875 38.5424880981445 195.81462097168 38.122486114502 196.3212890625 37.9358215332031 C 196.441284179688 37.8958206176758 196.561279296875 37.8758201599121 196.681289672852 37.8758201599121 C 197.121292114258 37.9424896240234 197.367950439453 38.1758193969727 197.421279907227 38.5758209228516 C 197.421279907227 38.9891548156738 197.241287231445 39.2958221435547 196.881286621094 39.4958229064941 C 196.667953491211 39.6291542053223 196.427947998047 39.6758193969727 196.161285400391 39.6358222961426 C 196.467956542969 40.3424873352051 197.227951049805 40.6958198547363 198.441284179688 40.6958198547363 C 199.81462097168 40.6958198547363 200.714614868164 40.1958198547363 201.14128112793 39.1958198547363 C 201.247955322266 38.9424896240234 201.301284790039 38.709156036377 201.301284790039 38.4958229064941 C 201.301284790039 37.8558197021484 200.907958984375 37.4158210754395 200.121292114258 37.1758193969727 L 200.101287841797 37.1758193969727 C 199.901290893555 37.1224899291992 199.607955932617 37.0558204650879 199.221282958984 36.9758224487305 C 198.021286010742 36.7224884033203 197.347946166992 36.1891555786133 197.201278686523 35.3758201599121 C 197.174621582031 35.2558212280273 197.161285400391 35.1291542053223 197.161285400391 34.9958190917969 C 197.161285400391 34.3291549682617 197.414611816406 33.709156036377 197.921279907227 33.1358222961426 C 198.547958374023 32.4291534423828 199.421279907227 32.0758209228516 200.541290283203 32.0758209228516 Z " fill = "black" />
<path d="M 216.120742797852 29.2558212280273 C 216.387405395508 29.2558212280273 216.520736694336 29.4758224487305 216.520736694336 29.9158210754395 L 216.520736694336 35.5158195495605 L 222.100738525391 35.5158195495605 C 222.527404785156 35.5158195495605 222.747406005859 35.6491546630859 222.7607421875 35.9158210754395 C 222.7607421875 36.182487487793 222.540740966797 36.3158226013184 222.100738525391 36.3158226013184 L 216.520736694336 36.3158226013184 L 216.520736694336 41.9158210754395 C 216.520736694336 42.3424873352051 216.387405395508 42.5624885559082 216.120742797852 42.5758209228516 C 215.854080200195 42.5758209228516 215.720748901367 42.3558197021484 215.720748901367 41.9158210754395 L 215.720748901367 36.3158226013184 L 210.120742797852 36.3158226013184 C 209.694076538086 36.3158226013184 209.474075317383 36.182487487793 209.460739135742 35.9158210754395 C 209.460739135742 35.6491546630859 209.680740356445 35.5158195495605 210.120742797852 35.5158195495605 L 215.720748901367 35.5158195495605 L 215.720748901367 29.9158210754395 C 215.720748901367 29.4891548156738 215.854080200195 29.2691555023193 216.120742797852 29.2558212280273 Z " fill = "black" />
<path d="M 237.620819091797 27.8758201599121 C 236.927490234375 27.8758220672607 236.520812988281 27.8824882507324 236.400817871094 27.8958206176758 C 236.16081237793 27.9358215332031 236.000823974609 28.0824890136719 235.920822143555 28.3358211517334 C 235.907485961914 28.4024887084961 235.880813598633 28.5024890899658 235.8408203125 28.6358222961426 L 234.540817260742 33.8558197021484 L 236.780822753906 33.8558197021484 C 238.260818481445 33.8558197021484 239.387481689453 33.4691543579102 240.160827636719 32.6958198547363 C 240.747482299805 32.1091537475586 241.107482910156 31.2958221435547 241.240814208984 30.2558212280273 L 241.240814208984 30.2358207702637 C 241.254150390625 30.0891551971436 241.260818481445 29.9624881744385 241.260818481445 29.8558216094971 C 241.260818481445 28.6691551208496 240.420822143555 28.0158214569092 238.740814208984 27.8958206176758 L 238.700820922852 27.8958206176758 C 238.447479248047 27.8824882507324 238.087493896484 27.8758220672607 237.620819091797 27.8758201599121 Z M 232.720825195313 27.2558212280273 L 233.000823974609 27.2558212280273 L 238.700820922852 27.2558212280273 C 240.367492675781 27.2558212280273 241.607482910156 27.695821762085 242.420822143555 28.5758209228516 C 242.887481689453 29.0558204650879 243.120819091797 29.6158218383789 243.120819091797 30.2558212280273 C 243.120819091797 31.4158210754395 242.407485961914 32.4091567993164 240.980819702148 33.2358207702637 C 240.287490844727 33.6491546630859 239.534149169922 33.9424896240234 238.720825195313 34.1158218383789 C 239.867492675781 34.5424880981445 240.487487792969 35.242488861084 240.580825805664 36.2158203125 C 240.594146728516 36.2958221435547 240.600814819336 36.3824882507324 240.600814819336 36.4758224487305 C 240.600814819336 36.7291564941406 240.574157714844 37.0424880981445 240.520812988281 37.4158210754395 C 240.387481689453 38.4824867248535 240.320816040039 39.242488861084 240.320816040039 39.6958198547363 C 240.320816040039 40.3891525268555 240.494155883789 40.7824859619141 240.8408203125 40.8758201599121 L 240.860824584961 40.8758201599121 C 240.940826416016 40.9024887084961 241.027481079102 40.9158210754395 241.120819091797 40.9158210754395 C 241.694152832031 40.9158210754395 242.180816650391 40.5691528320313 242.580825805664 39.8758201599121 C 242.727493286133 39.6491546630859 242.84748840332 39.3891525268555 242.940826416016 39.0958213806152 C 242.994155883789 38.9091529846191 243.080825805664 38.8158226013184 243.200820922852 38.8158226013184 C 243.360824584961 38.8158226013184 243.440826416016 38.8958206176758 243.440826416016 39.0558204650879 C 243.440826416016 39.3224868774414 243.280822753906 39.6958198547363 242.960815429688 40.1758193969727 C 242.707489013672 40.5624885559082 242.414154052734 40.8624877929688 242.080825805664 41.0758209228516 C 241.760818481445 41.2624893188477 241.414154052734 41.3558197021484 241.040817260742 41.3558197021484 C 239.934158325195 41.3558197021484 239.160827636719 41.0291557312012 238.720825195313 40.3758201599121 C 238.494155883789 40.0558204650879 238.380813598633 39.6624870300293 238.380813598633 39.1958198547363 C 238.380813598633 38.9158210754395 238.487487792969 38.3491554260254 238.700820922852 37.4958229064941 C 238.887481689453 36.775821685791 238.980819702148 36.3158226013184 238.980819702148 36.1158218383789 C 238.980819702148 35.2891540527344 238.607482910156 34.742488861084 237.860824584961 34.4758224487305 L 237.860824584961 34.4558219909668 C 237.554153442383 34.3491554260254 237.200820922852 34.2958221435547 236.800827026367 34.2958221435547 L 234.420822143555 34.2958221435547 L 233.100814819336 39.5958213806152 L 233.040817260742 39.9358215332031 C 233.040817260742 40.1624870300293 233.34748840332 40.2824859619141 233.960815429688 40.2958221435547 L 234.3408203125 40.2958221435547 C 234.687484741211 40.2958221435547 234.874145507813 40.3691558837891 234.900817871094 40.5158195495605 C 234.900817871094 40.7824859619141 234.767486572266 40.9158210754395 234.500823974609 40.9158210754395 L 231.980819702148 40.8558197021484 L 231.960815429688 40.8558197021484 L 229.460815429688 40.9158210754395 L 229.440826416016 40.9158210754395 C 229.254150390625 40.9158210754395 229.160827636719 40.8424873352051 229.160827636719 40.6958198547363 C 229.160827636719 40.4558219909668 229.260818481445 40.3224868774414 229.460815429688 40.2958221435547 L 229.700820922852 40.2958221435547 C 230.567489624023 40.2958221435547 231.087493896484 40.2024879455566 231.260818481445 40.0158195495605 C 231.3408203125 39.9224891662598 231.420822143555 39.7358207702637 231.500823974609 39.4558219909668 C 231.500823974609 39.4424896240234 231.50749206543 39.4091529846191 231.520812988281 39.3558197021484 L 234.200820922852 28.6158218383789 C 234.254150390625 28.4024887084961 234.280822753906 28.275821685791 234.280822753906 28.2358207702637 C 234.280822753906 28.0758209228516 234.17414855957 27.9758224487305 233.960815429688 27.9358215332031 L 233.940826416016 27.9358215332031 L 233.920822143555 27.9358215332031 C 233.880813598633 27.9358215332031 233.820816040039 27.9291553497314 233.740814208984 27.9158210754395 C 233.51416015625 27.8891544342041 233.260818481445 27.8758220672607 232.980819702148 27.8758201599121 C 232.634155273438 27.8758220672607 232.447479248047 27.8024883270264 232.420822143555 27.6558227539063 C 232.420822143555 27.4158210754395 232.520812988281 27.2824897766113 232.720825195313 27.2558212280273 Z " fill = "black" />

</svg>
